#define close_hover_width 14
#define close_hover_height 14
static unsigned char close_hover_bits[] = {
   0x00, 0x00, 0x00, 0x00, 0xfc, 0x0f, 0x04, 0x08, 0x04, 0x08, 0xe4, 0x09,
   0xe4, 0x09, 0xe4, 0x09, 0xe4, 0x09, 0x04, 0x08, 0x04, 0x08, 0xfc, 0x0f,
   0x00, 0x00, 0x00, 0x00 };
