#define max_hover_toggled_width 14
#define max_hover_toggled_height 14
static unsigned char max_hover_toggled_bits[] = {
   0x00, 0x00, 0x00, 0x00, 0x00, 0x00, 0x00, 0x00, 0x00, 0x00, 0x00, 0x00,
   0x08, 0x00, 0x08, 0x00, 0x08, 0x00, 0x08, 0x00, 0xf8, 0x00, 0x00, 0x00,
   0x00, 0x00, 0x00, 0x00 };
