#define max_width 14
#define max_height 14
static unsigned char max_bits[] = {
   0x00, 0x00, 0x00, 0x00, 0x00, 0x00, 0xe0, 0x07, 0xc0, 0x07, 0x88, 0x07,
   0x18, 0x07, 0x38, 0x06, 0x78, 0x04, 0xf8, 0x00, 0xf8, 0x01, 0x00, 0x00,
   0x00, 0x00, 0x00, 0x00 };
