#define max_hover_width 14
#define max_hover_height 14
static unsigned char max_hover_bits[] = {
   0x00, 0x00, 0x00, 0x00, 0x00, 0x00, 0xe0, 0x07, 0xc0, 0x07, 0x80, 0x07,
   0x00, 0x07, 0x00, 0x06, 0x00, 0x04, 0x00, 0x00, 0x00, 0x00, 0x00, 0x00,
   0x00, 0x00, 0x00, 0x00 };
