#define max_toggled_width 14
#define max_toggled_height 14
static unsigned char max_toggled_bits[] = {
   0x00, 0x00, 0x00, 0x00, 0x00, 0x00, 0x00, 0x00, 0x00, 0x00, 0x08, 0x00,
   0x18, 0x00, 0x38, 0x00, 0x78, 0x00, 0xf8, 0x00, 0xf8, 0x01, 0x00, 0x00,
   0x00, 0x00, 0x00, 0x00 };
