#define close_width 14
#define close_height 14
static unsigned char close_bits[] = {
   0x00, 0x00, 0x00, 0x00, 0x00, 0x00, 0x18, 0x06, 0x18, 0x06, 0x00, 0x00,
   0x00, 0x00, 0x00, 0x00, 0x00, 0x00, 0x18, 0x06, 0x18, 0x06, 0x00, 0x00,
   0x00, 0x00, 0x00, 0x00 };
