#define close_hover_width 14
#define close_hover_height 14
static unsigned char close_hover_bits[] = {
   0x00, 0x00, 0x00, 0x00, 0x1c, 0x0e, 0x1c, 0x0e, 0x1c, 0x0e, 0x00, 0x00,
   0x00, 0x00, 0x00, 0x00, 0x00, 0x00, 0x1c, 0x0e, 0x1c, 0x0e, 0x1c, 0x0e,
   0x00, 0x00, 0x00, 0x00 };
