#define max_hover_width 14
#define max_hover_height 14
static unsigned char max_hover_bits[] = {
   0x00, 0x00, 0x00, 0x00, 0x1c, 0x0e, 0x1c, 0x0e, 0x1c, 0x0e, 0x00, 0x00,
   0x00, 0x00, 0x00, 0x00, 0x00, 0x00, 0x00, 0x0e, 0x00, 0x0e, 0x00, 0x0e,
   0x00, 0x00, 0x00, 0x00 };
